<?xml version="1.0" encoding="UTF-8" standalone="no"?>
<svg
   xmlns:dc="http://purl.org/dc/elements/1.1/"
   xmlns:cc="http://creativecommons.org/ns#"
   xmlns:rdf="http://www.w3.org/1999/02/22-rdf-syntax-ns#"
   xmlns:svg="http://www.w3.org/2000/svg"
   xmlns="http://www.w3.org/2000/svg"
   xmlns:sodipodi="http://sodipodi.sourceforge.net/DTD/sodipodi-0.dtd"
   xmlns:inkscape="http://www.inkscape.org/namespaces/inkscape"
   version="1.1"
   viewBox="0 0 158 158"
   id="svg125"
   sodipodi:docname="gss-init.svg"
   inkscape:version="0.92.3 (2405546, 2018-03-11)"
   inkscape:export-filename="/home/kwart/projects/presentations/2020-01-DevConf-Brno/kerberos-images/gss-init.png"
   inkscape:export-xdpi="299.97278"
   inkscape:export-ydpi="299.97278">
  <metadata
     id="metadata131">
    <rdf:RDF>
      <cc:Work
         rdf:about="">
        <dc:format>image/svg+xml</dc:format>
        <dc:type
           rdf:resource="http://purl.org/dc/dcmitype/StillImage" />
        <dc:title />
      </cc:Work>
    </rdf:RDF>
  </metadata>
  <defs
     id="defs129" />
  <sodipodi:namedview
     pagecolor="#ffffff"
     bordercolor="#666666"
     borderopacity="1"
     objecttolerance="10"
     gridtolerance="10"
     guidetolerance="10"
     inkscape:pageopacity="0"
     inkscape:pageshadow="2"
     inkscape:window-width="1920"
     inkscape:window-height="1027"
     id="namedview127"
     showgrid="false"
     inkscape:object-nodes="false"
     inkscape:zoom="4.2247392"
     inkscape:cx="17.305226"
     inkscape:cy="90.307246"
     inkscape:window-x="0"
     inkscape:window-y="28"
     inkscape:window-maximized="1"
     inkscape:current-layer="svg125" />
  <g
     transform="translate(3.6358832,4.444123)"
     id="g32"
     style="fill:#f4f6f8;stroke:#0f2d59;stroke-linecap:round;stroke-linejoin:round">
    <path
       d="m 7.75,36.5 c -1.25,0 -2,0.3 -2.5,1.5 l -2.5,6 C 1.9,46 3,46.5 4,46.5 h 40 c 1,0 2.1,-0.5 1.25,-2.5 l -2.5,-6 c -0.5,-1.2 -1.25,-1.5 -2.5,-1.5 z"
       id="path18"
       inkscape:connector-curvature="0" />
    <path
       d="m 14.5,29.5 -1,3 c -0.5,1.5 0,2 1.5,2 h 18 c 1.5,0 2,-0.5 1.5,-2 l -1,-3 z"
       id="path20"
       inkscape:connector-curvature="0" />
    <path
       d="m 8,38.5 -2,6 h 36 l -2,-6 z"
       id="path22"
       inkscape:connector-curvature="0" />
    <path
       d="m 37.5,38.5 v 6 m -3,-6 v 6 m -3,-6 v 6 m -3,-6 v 3 m -3,-3 v 3 m -3,-3 v 3 m -3,-3 v 3 m -3,-3 v 3 m -3,-3 v 6 m -3,-6 v 6 M 7,41.5 h 34"
       id="path24"
       inkscape:connector-curvature="0" />
    <rect
       x="19.5"
       y="28.5"
       width="9"
       height="4"
       id="rect26" />
    <rect
       x="4.5"
       y="1.5"
       width="39"
       height="29"
       rx="2"
       ry="2"
       id="rect28" />
    <rect
       x="7.5"
       y="4.5"
       width="33"
       height="22"
       rx="1"
       ry="1"
       id="rect30" />
  </g>
  <g
     transform="translate(116.54226,106.97608)"
     id="g92"
     style="fill:#f4f6f8;stroke:#0f2d59;stroke-linecap:round;stroke-linejoin:round">
    <path
       d="m 16.5,1.5 -5,6 v 39 h 24 v -39 l -5,-6 z"
       id="path82"
       inkscape:connector-curvature="0" />
    <path
       d="m 14.5,9.5 v 24 h 18 v -24 z"
       id="path84"
       inkscape:connector-curvature="0" />
    <path
       d="m 14.5,31.5 h 18 m -18,-4 h 18 m -18,-2 h 18 m -18,-10 h 18 m -18,4 h 18 m -18,2 h 18 m -18,-8 h 18"
       id="path86"
       inkscape:connector-curvature="0" />
    <path
       d="m 30.5,43.5 v -7 m -2,7 v -7 m -2,7 v -7 m -2,7 v -7 m -2,7 v -7 m -2,7 v -7 m -2,7 v -7 m -2,7 v -7"
       id="path88"
       inkscape:connector-curvature="0" />
    <path
       d="m 16.5,29.5 h 2 m -2,-6 h 2 m -2,-6 h 2 m -2,-6 h 2"
       id="path90"
       inkscape:connector-curvature="0" />
  </g>
  <path
     style="fill:none;stroke:#000000;stroke-width:0.92347538px;stroke-linecap:butt;stroke-linejoin:miter;stroke-opacity:1"
     d="M 53.692764,53.813046 C 54.548719,98.711329 91.729388,117.78132 122.64935,117.09209 123.59673,86.555915 96.390441,53.496544 53.692764,53.813046 Z"
     id="path3852"
     inkscape:connector-curvature="0"
     inkscape:transform-center-x="-11.146947"
     inkscape:transform-center-y="-9.7334689"
     sodipodi:nodetypes="ccc" />
  <text
     xml:space="preserve"
     style="font-style:normal;font-variant:normal;font-weight:normal;font-stretch:normal;font-size:16px;line-height:1.25;font-family:'Courier New';-inkscape-font-specification:'Courier New';letter-spacing:0px;word-spacing:0px;fill:#000000;fill-opacity:1;stroke:none"
     x="54.914635"
     y="46.040428"
     id="text3856"><tspan
       sodipodi:role="line"
       x="54.914635"
       y="46.040428"
       style="font-style:normal;font-variant:normal;font-weight:bold;font-stretch:normal;font-size:5.33333333px;font-family:'Courier New';-inkscape-font-specification:'Courier New'"
       id="tspan3884">GSSContext.initSecContext</tspan></text>
  <text
     xml:space="preserve"
     style="font-style:normal;font-variant:normal;font-weight:normal;font-stretch:normal;font-size:16px;line-height:1.25;font-family:'Courier New';-inkscape-font-specification:'Courier New';letter-spacing:0px;word-spacing:0px;fill:#000000;fill-opacity:1;stroke:none"
     x="37.356377"
     y="126.62051"
     id="text3856-4"><tspan
       sodipodi:role="line"
       id="tspan3854-1"
       x="37.356377"
       y="126.62051"
       style="font-style:normal;font-variant:normal;font-weight:bold;font-stretch:normal;font-size:5.33333349px;font-family:'Courier New';-inkscape-font-specification:'Courier New'">GSSContext.acceptSecContext</tspan></text>
  <text
     xml:space="preserve"
     style="font-style:normal;font-weight:normal;font-size:16px;line-height:1.25;font-family:sans-serif;letter-spacing:0px;word-spacing:0px;fill:#000000;fill-opacity:1;stroke:none"
     x="53.281643"
     y="14.192184"
     id="text4236"><tspan
       sodipodi:role="line"
       x="53.281643"
       y="14.192184"
       style="font-weight:bold;font-size:8px;line-height:0.2"
       id="tspan4250">Context initialization</tspan></text>
</svg>
