<?xml version="1.0" encoding="UTF-8" standalone="no"?>
<!-- Generator: Adobe Illustrator 13.0.0, SVG Export Plug-In . SVG Version: 6.00 Build 14948)  -->

<svg
   xmlns:dc="http://purl.org/dc/elements/1.1/"
   xmlns:cc="http://creativecommons.org/ns#"
   xmlns:rdf="http://www.w3.org/1999/02/22-rdf-syntax-ns#"
   xmlns:svg="http://www.w3.org/2000/svg"
   xmlns="http://www.w3.org/2000/svg"
   xmlns:sodipodi="http://sodipodi.sourceforge.net/DTD/sodipodi-0.dtd"
   xmlns:inkscape="http://www.inkscape.org/namespaces/inkscape"
   version="1.1"
   id="Layer_1"
   x="0px"
   y="0px"
   width="1052.3622"
   height="744.09448"
   viewBox="0 0 1052.3622 744.09449"
   xml:space="preserve"
   inkscape:version="0.48.4 r9939"
   sodipodi:docname="background.svg"
   inkscape:export-filename="/home/jcacek/Dropbox/Dokumenty/MyPresentations/2014 Devoxx.be/images/background.png"
   inkscape:export-xdpi="164.2"
   inkscape:export-ydpi="164.2"><metadata
     id="metadata33"><rdf:RDF><cc:Work
         rdf:about=""><dc:format>image/svg+xml</dc:format><dc:type
           rdf:resource="http://purl.org/dc/dcmitype/StillImage" /><dc:title></dc:title></cc:Work></rdf:RDF></metadata><defs
     id="defs31" /><sodipodi:namedview
     pagecolor="#494e52"
     bordercolor="#666666"
     borderopacity="1"
     objecttolerance="10"
     gridtolerance="10"
     guidetolerance="10"
     inkscape:pageopacity="1"
     inkscape:pageshadow="2"
     inkscape:window-width="1920"
     inkscape:window-height="1055"
     id="namedview29"
     showgrid="false"
     inkscape:zoom="0.60682618"
     inkscape:cx="701.4686"
     inkscape:cy="349.08629"
     inkscape:window-x="1680"
     inkscape:window-y="0"
     inkscape:window-maximized="1"
     inkscape:current-layer="Layer_1" /><path
     style="fill:#1a1a1a"
     d="m 798.10255,594.18111 c 0,0 -14.178,8.245 10.09,11.035 29.4,3.354 44.426,2.873 76.825,-3.259 0,0 8.518,5.341 20.414,9.967 -72.63,31.128 -164.376,-1.803 -107.329,-17.743"
     id="path5"
     inkscape:connector-curvature="0" /><path
     style="fill:#1a1a1a"
     d="m 864.04655,484.65611 c 17.896,20.604 -4.702,39.145 -4.702,39.145 0,0 45.441,-23.458 24.572,-52.833 -19.491,-27.394 -34.438,-41.005 46.479,-87.934 0,0 -127.013,31.722 -66.349,101.622"
     id="path9"
     inkscape:connector-curvature="0" /><path
     style="fill:#1a1a1a"
     d="m 960.10555,624.22611 c 0,0 10.49198,8.645 -11.555,15.333 -41.923,12.7 -174.488,16.535 -211.314,0.506 -13.238,-5.759 11.587,-13.751 19.396,-15.428 8.144,-1.766 12.798,-1.437 12.798,-1.437 -14.722,-10.371 -95.157,20.364 -40.857,29.166 148.084,24.015 269.94298,-10.814 231.532,-28.14"
     id="path11"
     inkscape:connector-curvature="0" /><path
     style="fill:#1a1a1a"
     d="m 804.92055,511.47411 c 0,0 -67.431,16.016 -23.879,21.832 18.389,2.462 55.047,1.905 89.193,-0.956 27.906,-2.354 55.927,-7.359 55.927,-7.359 0,0 -9.84,4.214 -16.959,9.075 -68.475,18.009 -200.756,9.631 -162.674,-8.79 32.206,-15.568 58.392,-13.802 58.392,-13.802"
     id="path13"
     inkscape:connector-curvature="0" /><path
     style="fill:#1a1a1a"
     d="m 915.99604,605.4548 c 69.60798,-36.171 37.424,-70.931 14.96,-66.248 -5.506,1.146 -7.961,2.139 -7.961,2.139 0,0 2.044,-3.202 5.948,-4.588 44.44098,-15.624 78.61896,46.081 -14.346,70.52 0,0.001 1.077,-0.962 1.399,-1.823"
     id="path15"
     inkscape:connector-curvature="0" /><path
     style="fill:#1a1a1a"
     d="m 883.91655,307.25611 c 0,0 38.55,38.563 -36.563,97.862 -60.233,47.568 -13.735,74.69 -0.025,105.678 -35.159,-31.722 -60.961,-59.647 -43.651,-85.637 25.407,-38.151 95.793,-56.648 80.239,-117.903"
     id="path17"
     inkscape:connector-curvature="0" /><path
     style="fill:#1a1a1a"
     d="m 811.76055,677.10311 c 66.815,4.277 169.41698,-2.373 171.84698,-33.988 0,0 -4.671,11.985 -55.21898,21.503 -57.028,10.732 -127.364,9.479 -169.081,2.601 10e-4,-10e-4 8.54,7.068 52.453,9.884"
     id="path19"
     inkscape:connector-curvature="0" /><path
     inkscape:connector-curvature="0"
     style="fill:#1a1a1a"
     d="m 763.99891,334.64263 c 0,0 49.97809,13.2843 16.38505,96.92385 -26.93053,67.08365 24.15089,67.3088 50.12098,86.10553 -43.94545,-9.30605 -78.3996,-19.91987 -76.50559,-49.23527 2.77815,-43.03119 51.846,-91.20679 9.99957,-133.79411"
     id="path17-1" /></svg>